<svg xmlns="http://www.w3.org/2000/svg" width="37" height="36" viewBox="0 0 37 36" fill="none">
  <path d="M18.5 0C16.0705 0 13.6649 0.477143 11.4204 1.40419C9.17583 2.33123 7.13641 3.69002 5.41852 5.40297C1.9491 8.86243 0 13.5545 0 18.4469C0 26.6004 5.3095 33.518 12.654 35.9714C13.579 36.119 13.875 35.5471 13.875 35.0491V31.9316C8.7505 33.0384 7.659 29.4597 7.659 29.4597C6.808 27.3198 5.6055 26.748 5.6055 26.748C3.922 25.6043 5.735 25.6412 5.735 25.6412C7.585 25.7703 8.5655 27.5412 8.5655 27.5412C10.175 30.3451 12.8945 29.515 13.949 29.0723C14.1155 27.8732 14.5965 27.0616 15.1145 26.6004C11.0075 26.1392 6.697 24.5528 6.697 17.5245C6.697 15.4769 7.4 13.8352 8.6025 12.5254C8.4175 12.0643 7.77 10.1458 8.7875 7.65546C8.7875 7.65546 10.3415 7.15739 13.875 9.53704C15.3365 9.13121 16.9275 8.92829 18.5 8.92829C20.0725 8.92829 21.6635 9.13121 23.125 9.53704C26.6585 7.15739 28.2125 7.65546 28.2125 7.65546C29.23 10.1458 28.5825 12.0643 28.3975 12.5254C29.6 13.8352 30.303 15.4769 30.303 17.5245C30.303 24.5713 25.974 26.1208 21.8485 26.582C22.5145 27.1538 23.125 28.2791 23.125 29.9946V35.0491C23.125 35.5471 23.421 36.1375 24.3645 35.9714C31.709 33.4995 37 26.6004 37 18.4469C37 16.0244 36.5215 13.6256 35.5918 11.3876C34.6621 9.14949 33.2994 7.11592 31.5815 5.40297C29.8636 3.69002 27.8242 2.33123 25.5796 1.40419C23.3351 0.477143 20.9295 0 18.5 0Z" fill="currentColor"/>
</svg>